<?xml version="1.0" encoding="utf-8"?>
<!-- Generator: Adobe Illustrator 26.0.2, SVG Export Plug-In . SVG Version: 6.00 Build 0)  -->
<svg version="1.1" id="Layer_1" xmlns="http://www.w3.org/2000/svg" xmlns:xlink="http://www.w3.org/1999/xlink" x="0px" y="0px"
	 viewBox="0 0 1754 504" style="enable-background:new 0 0 1754 504;" xml:space="preserve">
<style type="text/css">
	.st0{fill:#36B24A;}
	.st1{fill:#37B34A;}
	.st2{fill:url(#SVGID_1_);}
	.st3{fill:#FFFFFF;}
</style>
<g>
	<circle class="st0" cx="249.35" cy="176.13" r="58.75"/>
	<g>
		<path class="st1" d="M245.91,494.42c-68.64,0-161.61-91.96-202.33-158.34C15.52,290.34,8.2,253.55,21.83,226.75l0,0
			c10.36-20.38,26.12-27.48,37.53-29.84c44.71-9.27,100.26,34.29,187.18,106.16c18.3,15.14,37.91,31.35,57.58,46.73
			c11.03-36.16,20.59-77.23,28.9-112.93C361.75,113.45,386.57,6.87,456.57,6.87c23.21,0,55.16,12.25,75.57,70.58
			c11.91,34.06,18.48,80.82,18.48,131.67c0,125.22-37.5,259.99-119.83,259.99c-30.91,0-66.2-16.51-103.33-40.92
			C307.65,468.57,282.21,494.42,245.91,494.42z M66.07,249.24c-2.75,5.41-2.15,25.09,19.81,60.89
			c40.92,66.7,121.68,134.66,160.03,134.66c15.1,0,28.57-18.3,40.59-45.84c-23.71-18.04-47.78-37.95-71.6-57.64
			C163.5,298.79,93.05,240.6,69.45,245.49C68.87,245.61,67.8,245.84,66.07,249.24L66.07,249.24z M346.35,381.05
			c32.61,22.45,62.8,38.44,84.43,38.44c37.4,0,70.21-98.3,70.21-210.36c0-45.41-5.57-86.35-15.7-115.28
			c-8.18-23.38-18.92-37.34-28.73-37.34c-30.6,0-57.44,115.31-75.21,191.61C370.35,295.35,359.58,341.6,346.35,381.05z"/>
	</g>
	<g>
		<linearGradient id="SVGID_1_" gradientUnits="userSpaceOnUse" x1="93.9307" y1="403.963" x2="358.8149" y2="280.4455">
			<stop  offset="0.0885" style="stop-color:#37B34A;stop-opacity:0"/>
			<stop  offset="0.1692" style="stop-color:#25A245;stop-opacity:0.1821"/>
			<stop  offset="0.2923" style="stop-color:#118D40;stop-opacity:0.4602"/>
			<stop  offset="0.4139" style="stop-color:#04813D;stop-opacity:0.7349"/>
			<stop  offset="0.5312" style="stop-color:#007D3C"/>
			<stop  offset="0.7134" style="stop-color:#027F3D;stop-opacity:0.6114"/>
			<stop  offset="0.8154" style="stop-color:#0A873F;stop-opacity:0.3937"/>
			<stop  offset="0.8976" style="stop-color:#189542;stop-opacity:0.2183"/>
			<stop  offset="0.9689" style="stop-color:#2CA847;stop-opacity:0.0664"/>
			<stop  offset="1" style="stop-color:#37B34A;stop-opacity:0"/>
		</linearGradient>
		<path class="st2" d="M430.74,469.11c-61.32,0-139.89-64.97-215.87-127.8c-51.4-42.5-121.83-100.76-145.46-95.81
			c-0.58,0.12-1.65,0.34-3.38,3.74c-6.22,12.22-21.15,17.09-33.37,10.87c-12.21-6.21-17.08-21.14-10.87-33.36
			c10.36-20.38,26.12-27.48,37.53-29.84c44.73-9.27,100.27,34.29,187.17,106.16c62.72,51.87,140.78,116.42,184.24,116.42
			c13.7,0,24.81,11.11,24.81,24.81C455.55,458,444.44,469.11,430.74,469.11z"/>
	</g>
</g>
<g>
	<path class="st3" d="M834.67,109.37l57.76,169.95l48.76-169.95h48.75l-72.9,241.43h-43.08l-60.12-174.68L754.19,350.8h-43.08
		l-73.37-241.43h50.65l48.29,169.95l58.23-169.95H834.67z"/>
	<path class="st3" d="M1113.94,104.64c69.59,0,120.72,53.49,120.72,125.45v15.62H1038.2c6.63,39.29,39.29,68.64,80,68.64
		c27.93,0,51.6-11.36,69.59-35.51l34.56,25.57c-24.14,32.19-60.12,51.6-104.15,51.6c-72.43,0-128.28-53.97-128.28-125.92
		C989.91,161.92,1043.4,104.64,1113.94,104.64z M1039.14,207.84h147.22c-8.04-36.92-37.87-61.54-73.37-61.54
		C1077.49,146.3,1047.67,170.91,1039.14,207.84z"/>
	<path class="st3" d="M1262.56,19.43h47.81v120.72c21.78-22.25,52.07-35.98,85.68-35.98c71.01,0,126.87,56.33,126.87,126.39
		c0,69.59-55.86,125.92-126.87,125.92c-33.61,0-64.38-13.73-86.15-35.98v30.3h-47.34V19.43z M1392.74,314.35
		c45.45,0,82.85-37.4,82.85-83.79c0-46.87-37.4-83.79-82.85-83.79c-45.92,0-83.32,36.92-83.32,83.79
		C1309.42,276.95,1346.35,314.35,1392.74,314.35z"/>
	<path class="st3" d="M1572.64,109.33h-54.92l60.56,80.71l48.38-6.75L1572.64,109.33z M1657.34,225.36l87.14-116.03h-53.03
		l-178.92,241.48h53.03l65.77-89.9l65.33,89.9h54.92L1657.34,225.36z"/>
</g>
<g>
	<path class="st3" d="M989.91,444.01c0-5.22,0.94-10.1,2.83-14.65c1.89-4.54,4.49-8.53,7.83-11.96c3.34-3.43,7.25-6.14,11.75-8.12
		c4.5-1.98,9.35-2.97,14.57-2.97c5.03,0,9.72,0.94,14.07,2.83c4.35,1.89,8.12,4.49,11.31,7.83c3.19,3.34,5.7,7.23,7.54,11.67
		c1.83,4.45,2.75,9.28,2.75,14.5v4.06h-62.21c0.39,3.58,1.38,6.91,2.97,10.01c1.6,3.09,3.6,5.78,6.02,8.05
		c2.41,2.27,5.22,4.06,8.41,5.37c3.19,1.3,6.57,1.96,10.15,1.96c4.73,0,9.06-1.04,12.98-3.12c3.92-2.08,7.27-5,10.08-8.77l7.83,5.51
		c-3.48,4.84-7.88,8.63-13.2,11.38c-5.32,2.76-11.17,4.13-17.55,4.13c-5.41,0-10.44-0.97-15.08-2.9c-4.64-1.93-8.65-4.59-12.03-7.98
		c-3.39-3.38-6.07-7.37-8.05-11.96C990.9,454.29,989.91,449.33,989.91,444.01z M1026.89,415.45c-3.29,0-6.38,0.58-9.28,1.74
		c-2.9,1.16-5.51,2.76-7.83,4.79c-2.32,2.03-4.28,4.45-5.87,7.25c-1.6,2.81-2.68,5.9-3.26,9.28h51.48
		c-0.48-3.38-1.48-6.48-2.97-9.28c-1.5-2.8-3.38-5.22-5.65-7.25c-2.27-2.03-4.81-3.63-7.61-4.79
		C1033.08,416.03,1030.08,415.45,1026.89,415.45z"/>
	<path class="st3" d="M1230.24,444.01c0,5.22-0.99,10.13-2.97,14.72c-1.98,4.59-4.71,8.61-8.19,12.04
		c-3.48,3.43-7.54,6.14-12.18,8.12c-4.64,1.98-9.62,2.97-14.94,2.97c-5.41,0-10.44-0.99-15.08-2.97c-4.64-1.98-8.68-4.69-12.11-8.12
		c-3.43-3.43-6.14-7.44-8.12-12.04c-1.98-4.59-2.97-9.5-2.97-14.72c0-5.22,0.99-10.13,2.97-14.72c1.98-4.59,4.69-8.58,8.12-11.96
		c3.43-3.38,7.47-6.07,12.11-8.05c4.64-1.98,9.67-2.97,15.08-2.97c5.32,0,10.3,0.99,14.94,2.97c4.64,1.98,8.7,4.67,12.18,8.05
		c3.48,3.38,6.21,7.37,8.19,11.96C1229.25,433.89,1230.24,438.8,1230.24,444.01z M1219.8,444.01c0-3.96-0.73-7.69-2.18-11.17
		c-1.45-3.48-3.46-6.5-6.02-9.06c-2.56-2.56-5.53-4.57-8.92-6.02c-3.39-1.45-6.96-2.18-10.73-2.18c-3.87,0-7.49,0.72-10.88,2.18
		c-3.39,1.45-6.33,3.46-8.85,6.02c-2.51,2.56-4.49,5.58-5.94,9.06c-1.45,3.48-2.18,7.2-2.18,11.17c0,3.97,0.73,7.66,2.18,11.09
		c1.45,3.43,3.43,6.43,5.94,8.99c2.51,2.56,5.46,4.59,8.85,6.09c3.38,1.5,7.01,2.25,10.88,2.25c3.77,0,7.35-0.75,10.73-2.25
		c3.38-1.5,6.35-3.53,8.92-6.09c2.56-2.56,4.57-5.56,6.02-8.99C1219.07,451.68,1219.8,447.98,1219.8,444.01z"/>
	<path class="st3" d="M1252.86,480.41h-10.44v-72.8h10.44v9.72c2.32-3.48,5.37-6.21,9.14-8.19c3.77-1.98,7.98-2.97,12.62-2.97
		c5.51,0,10.34,1.38,14.5,4.13c4.16,2.76,7.25,6.36,9.28,10.8c2.13-4.45,5.32-8.05,9.57-10.8c4.25-2.75,9.18-4.13,14.79-4.13
		c3.96,0,7.56,0.7,10.8,2.1c3.24,1.4,6.02,3.34,8.34,5.8c2.32,2.47,4.13,5.37,5.44,8.7c1.3,3.34,1.96,6.89,1.96,10.66v46.98h-10.44
		v-44.96c0-2.9-0.44-5.56-1.3-7.98c-0.87-2.42-2.1-4.5-3.7-6.24c-1.59-1.74-3.53-3.09-5.8-4.06c-2.27-0.96-4.76-1.45-7.47-1.45
		c-2.81,0-5.39,0.51-7.76,1.52c-2.37,1.02-4.42,2.44-6.16,4.28c-1.74,1.84-3.1,4.01-4.06,6.53c-0.97,2.52-1.45,5.27-1.45,8.27v44.09
		h-10.44v-44.96c0-5.8-1.67-10.54-5-14.21c-3.34-3.67-7.76-5.51-13.27-5.51c-2.9,0-5.54,0.51-7.9,1.52
		c-2.37,1.02-4.42,2.44-6.16,4.28c-1.74,1.84-3.1,4.01-4.06,6.53c-0.97,2.52-1.45,5.27-1.45,8.27V480.41z"/>
	<path class="st3" d="M1374.82,480.41h-10.44v-72.8h10.44v9.72c2.32-3.48,5.37-6.21,9.14-8.19c3.77-1.98,7.98-2.97,12.62-2.97
		c5.51,0,10.34,1.38,14.5,4.13c4.16,2.76,7.25,6.36,9.28,10.8c2.13-4.45,5.32-8.05,9.57-10.8c4.25-2.75,9.18-4.13,14.79-4.13
		c3.96,0,7.56,0.7,10.8,2.1c3.24,1.4,6.02,3.34,8.34,5.8c2.32,2.47,4.13,5.37,5.44,8.7c1.3,3.34,1.96,6.89,1.96,10.66v46.98h-10.44
		v-44.96c0-2.9-0.44-5.56-1.3-7.98c-0.87-2.42-2.1-4.5-3.7-6.24s-3.53-3.09-5.8-4.06c-2.27-0.96-4.76-1.45-7.47-1.45
		c-2.81,0-5.39,0.51-7.76,1.52c-2.37,1.02-4.42,2.44-6.16,4.28c-1.74,1.84-3.1,4.01-4.06,6.53c-0.97,2.52-1.45,5.27-1.45,8.27v44.09
		h-10.44v-44.96c0-5.8-1.67-10.54-5-14.21c-3.34-3.67-7.76-5.51-13.27-5.51c-2.9,0-5.54,0.51-7.9,1.52
		c-2.37,1.02-4.42,2.44-6.16,4.28c-1.74,1.84-3.1,4.01-4.06,6.53c-0.97,2.52-1.45,5.27-1.45,8.27V480.41z"/>
	<path class="st3" d="M1483.58,444.01c0-5.22,0.94-10.1,2.83-14.65c1.89-4.54,4.49-8.53,7.83-11.96c3.34-3.43,7.25-6.14,11.75-8.12
		c4.5-1.98,9.35-2.97,14.57-2.97c5.03,0,9.72,0.94,14.07,2.83c4.35,1.89,8.12,4.49,11.31,7.83c3.19,3.34,5.7,7.23,7.54,11.67
		c1.83,4.45,2.75,9.28,2.75,14.5v4.06h-62.21c0.39,3.58,1.38,6.91,2.97,10.01c1.59,3.09,3.6,5.78,6.02,8.05
		c2.41,2.27,5.22,4.06,8.41,5.37c3.19,1.3,6.57,1.96,10.15,1.96c4.73,0,9.06-1.04,12.98-3.12c3.92-2.08,7.27-5,10.08-8.77l7.83,5.51
		c-3.48,4.84-7.88,8.63-13.2,11.38c-5.32,2.76-11.17,4.13-17.55,4.13c-5.41,0-10.44-0.97-15.08-2.9c-4.64-1.93-8.65-4.59-12.03-7.98
		c-3.39-3.38-6.07-7.37-8.05-11.96C1484.57,454.29,1483.58,449.33,1483.58,444.01z M1520.55,415.45c-3.29,0-6.38,0.58-9.28,1.74
		c-2.9,1.16-5.51,2.76-7.83,4.79c-2.32,2.03-4.28,4.45-5.87,7.25c-1.59,2.81-2.68,5.9-3.26,9.28h51.48
		c-0.48-3.38-1.48-6.48-2.97-9.28c-1.5-2.8-3.38-5.22-5.65-7.25c-2.27-2.03-4.81-3.63-7.61-4.79
		C1526.74,416.03,1523.74,415.45,1520.55,415.45z"/>
	<path class="st3" d="M1596.11,416.75c-2.51,0-4.84,0.51-6.96,1.52c-2.13,1.02-3.94,2.42-5.44,4.21c-1.5,1.79-2.66,3.89-3.48,6.31
		c-0.82,2.42-1.23,5.03-1.23,7.83v43.79h-10.44v-72.8h10.44v9.57c1.74-3.09,4.08-5.56,7.03-7.4c2.95-1.83,6.45-2.76,10.51-2.76h5.08
		v9.72H1596.11z"/>
	<path class="st3" d="M1615.83,444.01c0,3.97,0.73,7.69,2.18,11.17c1.45,3.48,3.43,6.5,5.94,9.06c2.51,2.56,5.46,4.59,8.85,6.09
		c3.38,1.5,7.01,2.25,10.88,2.25c4.64,0,8.94-1.06,12.91-3.19c3.96-2.13,7.25-5.03,9.86-8.7l7.83,5.51
		c-3.48,4.84-7.81,8.65-12.98,11.46s-11.05,4.21-17.62,4.21c-5.41,0-10.44-0.99-15.08-2.97c-4.64-1.98-8.68-4.69-12.11-8.12
		c-3.43-3.43-6.14-7.44-8.12-12.04c-1.98-4.59-2.97-9.5-2.97-14.72c0-5.22,0.99-10.13,2.97-14.72c1.98-4.59,4.69-8.58,8.12-11.96
		c3.43-3.38,7.47-6.07,12.11-8.05c4.64-1.98,9.67-2.97,15.08-2.97c6.57,0,12.45,1.4,17.62,4.21c5.17,2.81,9.5,6.58,12.98,11.31
		l-7.83,5.66c-2.61-3.67-5.9-6.57-9.86-8.7c-3.97-2.13-8.27-3.19-12.91-3.19c-3.87,0-7.49,0.72-10.88,2.18
		c-3.39,1.45-6.33,3.46-8.85,6.02c-2.51,2.56-4.49,5.58-5.94,9.06C1616.55,436.33,1615.83,440.05,1615.83,444.01z"/>
	<path class="st3" d="M1084.19,444.01c0,3.97,0.73,7.69,2.18,11.17s3.43,6.5,5.94,9.06c2.51,2.56,5.46,4.59,8.85,6.09
		c3.38,1.5,7.01,2.25,10.88,2.25c4.64,0,8.94-1.06,12.91-3.19c3.96-2.13,7.25-5.03,9.86-8.7l7.83,5.51
		c-3.48,4.84-7.81,8.65-12.98,11.46s-11.05,4.21-17.62,4.21c-5.41,0-10.44-0.99-15.08-2.97c-4.64-1.98-8.68-4.69-12.11-8.12
		c-3.43-3.43-6.14-7.44-8.12-12.04c-1.98-4.59-2.97-9.5-2.97-14.72c0-5.22,0.99-10.13,2.97-14.72c1.98-4.59,4.69-8.58,8.12-11.96
		c3.43-3.38,7.47-6.07,12.11-8.05c4.64-1.98,9.67-2.97,15.08-2.97c6.57,0,12.45,1.4,17.62,4.21c5.17,2.81,9.5,6.58,12.98,11.31
		l-7.83,5.66c-2.61-3.67-5.9-6.57-9.86-8.7c-3.97-2.13-8.27-3.19-12.91-3.19c-3.87,0-7.49,0.72-10.88,2.18
		c-3.39,1.45-6.33,3.46-8.85,6.02c-2.51,2.56-4.49,5.58-5.94,9.06C1084.91,436.33,1084.19,440.05,1084.19,444.01z"/>
	<path class="st3" d="M1678.91,444.01c0-5.22,0.94-10.1,2.83-14.65c1.89-4.54,4.49-8.53,7.83-11.96c3.34-3.43,7.25-6.14,11.75-8.12
		c4.5-1.98,9.35-2.97,14.57-2.97c5.03,0,9.72,0.94,14.07,2.83c4.35,1.89,8.12,4.49,11.31,7.83c3.19,3.34,5.7,7.23,7.54,11.67
		c1.83,4.45,2.75,9.28,2.75,14.5v4.06h-62.21c0.39,3.58,1.38,6.91,2.97,10.01c1.59,3.09,3.6,5.78,6.02,8.05
		c2.41,2.27,5.22,4.06,8.41,5.37c3.19,1.3,6.57,1.96,10.15,1.96c4.73,0,9.06-1.04,12.98-3.12c3.92-2.08,7.27-5,10.08-8.77l7.83,5.51
		c-3.48,4.84-7.88,8.63-13.2,11.38c-5.32,2.76-11.17,4.13-17.55,4.13c-5.41,0-10.44-0.97-15.08-2.9c-4.64-1.93-8.65-4.59-12.03-7.98
		c-3.39-3.38-6.07-7.37-8.05-11.96C1679.9,454.29,1678.91,449.33,1678.91,444.01z M1715.89,415.45c-3.29,0-6.38,0.58-9.28,1.74
		c-2.9,1.16-5.51,2.76-7.83,4.79c-2.32,2.03-4.28,4.45-5.87,7.25c-1.6,2.81-2.68,5.9-3.26,9.28h51.48
		c-0.48-3.38-1.48-6.48-2.97-9.28c-1.5-2.8-3.38-5.22-5.65-7.25c-2.27-2.03-4.81-3.63-7.61-4.79
		C1722.07,416.03,1719.08,415.45,1715.89,415.45z"/>
</g>
</svg>
